<svg xmlns="http://www.w3.org/2000/svg" viewBox="0 0 387.91 172.41"><defs><style>.cls-1{fill:#37a1db;}</style></defs><g id="Layer_2" data-name="Layer 2"><g id="Layer_4_copy" data-name="Layer 4 copy"><path d="M100.33,120h12v22.45q0,5,1.35,7a5,5,0,0,0,4.52,2c2.16,0,3.7-.68,4.6-2s1.35-3.72,1.35-7V120h5.94v23.82q0,7.18-3.71,10.77t-11.19,3.59q-7.59,0-11.23-3.5t-3.63-10.86Z"/><path d="M140.38,104.92a6.29,6.29,0,1,1,12.58,0,6,6,0,0,1-1.85,4.44,6.11,6.11,0,0,1-4.46,1.83,6.32,6.32,0,0,1-6.27-6.27Zm.25,51.92V120h12v36.81Z"/><path d="M175.91,145.47c0,2.27.38,3.81,1.14,4.63s2.22,1.22,4.38,1.22h3v5.52H174.21c-3.79,0-6.46-.81-8-2.44s-2.3-4.56-2.3-8.76V97.41h12Z"/><path d="M223.18,97.41v59.43H207.7q-10.2,0-15.56-4.54t-5.36-13.22q0-9.21,5.81-14.13T209.32,120h1.87V97.41Zm-12,27.73q-6.06.08-8.72,3.17t-2.65,10.19q0,7,2.63,10.11t8.74,3.13Z"/><path d="M233.72,104.92a6.29,6.29,0,1,1,12.58,0,6,6,0,0,1-1.85,4.44,6.09,6.09,0,0,1-4.46,1.83,6.32,6.32,0,0,1-6.27-6.27Zm.25,51.92V120h12v36.81Z"/><path d="M257.26,110.53q0-7.35,2.67-10.23t9.32-2.89h10.54V103h-5q-3.24,0-4.38,1.23c-.76.81-1.14,2.36-1.14,4.62V120h9.42v5.52h-9.42v31.29h-12Z"/><path d="M277.26,120H290.5l7.39,17.51L305.07,120h6.27L288.8,172.41h-6.68L291.37,151Z"/><path class="cls-1" d="M311.34,156.84l19.05-55.49h15l20.34,55.49H349.23l-5.85-16.39H324.74l-5.52,16.39Zm15.81-23.45h13.7l-7.18-19.88Z"/><path class="cls-1" d="M387.91,156.84H372.35V101.35h15.56Z"/><polygon class="cls-1" points="45.55 0 59.02 12.86 59.02 35.45 59.02 38.94 56.6 38.94 56.75 14.33 45.55 3.86 45.55 0"/><polygon points="55.1 31.96 55.1 89.44 62.95 89.44 62.95 38.94 55.1 31.96"/><path class="cls-1" d="M80.42,121.85c6.63-3.29,11-9.17,11-16.28,0-11.43-9.84-18.86-24.4-18.86H45.55V0L20.81,24.73l-.24,19.35,9.8,9.55v90.61h-13l.49-72.49L0,85v73.86H67c15.87,0,27.62-8,27.62-20.09C94.59,130.82,89.17,124.84,80.42,121.85ZM45.47,99.08H67c6.32,0,11,3.51,11,8.76,0,5-5,8.55-11,8.55H45.47ZM67,146.38H45.47v-18H67c8.43,0,13.45,3.2,13.45,9.07C80.42,143,75.1,146.38,67,146.38Z"/><rect class="cls-1" x="45.47" y="99.08" width="0.08" height="17.31"/><rect class="cls-1" x="45.47" y="128.34" width="0.08" height="18.03"/><polygon points="7.35 77.32 7.35 30.67 30.37 53.63 30.37 144.24 26.08 144.24 26.08 74.94 19.16 68.02 7.35 77.32"/></g></g></svg>