<svg xmlns="http://www.w3.org/2000/svg" viewBox="0 0 94.59 158.84"><defs><style>.cls-1{fill:#37a1db;}</style></defs><g id="Layer_2" data-name="Layer 2"><g id="Layer_4_copy" data-name="Layer 4 copy"><polygon class="cls-1" points="45.55 0 59.02 12.86 59.02 35.45 59.02 38.94 56.6 38.94 56.75 14.33 45.55 3.86 45.55 0"/><polygon points="55.1 31.96 55.1 89.44 62.95 89.44 62.95 38.94 55.1 31.96"/><path class="cls-1" d="M80.42,121.85c6.63-3.29,11-9.17,11-16.28,0-11.43-9.84-18.86-24.4-18.86H45.55V0L20.81,24.73l-.24,19.35,9.8,9.55v90.61h-13l.49-72.49L0,85v73.86H67c15.87,0,27.62-8,27.62-20.09C94.59,130.82,89.17,124.84,80.42,121.85ZM45.47,99.08H67c6.32,0,11,3.51,11,8.76,0,5-5,8.55-11,8.55H45.47ZM67,146.38H45.47v-18H67c8.43,0,13.45,3.2,13.45,9.07C80.42,143,75.1,146.38,67,146.38Z"/><rect class="cls-1" x="45.47" y="99.08" width="0.08" height="17.31"/><rect class="cls-1" x="45.47" y="128.34" width="0.08" height="18.03"/><polygon points="7.35 77.32 7.35 30.67 30.37 53.63 30.37 144.24 26.08 144.24 26.08 74.94 19.16 68.02 7.35 77.32"/></g></g></svg>